<?xml version="1.0" encoding="UTF-8"?><svg id="Capa_1" xmlns="http://www.w3.org/2000/svg" xmlns:xlink="http://www.w3.org/1999/xlink" viewBox="0 0 56.58 63.6"><defs><style>.cls-1{filter:url(#outer-glow-11);}.cls-2{fill:none;stroke:#ff0080;stroke-miterlimit:10;}</style><filter id="outer-glow-11" filterUnits="userSpaceOnUse"><feOffset dx="0" dy="0"/><feGaussianBlur result="blur" stdDeviation="5"/><feFlood flood-color="#ff0080" flood-opacity="1"/><feComposite in2="blur" operator="in"/><feComposite in="SourceGraphic"/></filter></defs><g class="cls-1"><path class="cls-2" d="M4.67,11.57c0-1.87,1.56-3.38,3.49-3.38H48.42c1.93,0,3.49,1.52,3.49,3.38V52.04c0,1.87-1.56,3.38-3.49,3.38H8.16c-1.93,0-3.49-1.51-3.49-3.38V11.57h0Z"/><path class="cls-2" d="M19.03,47.71V26.45h-7.07v21.27h7.07Zm-3.53-24.17c2.46,0,4-1.63,4-3.67-.05-2.09-1.53-3.67-3.95-3.67s-4,1.59-4,3.67,1.53,3.67,3.91,3.67h.05Zm7.45,24.17h7.07v-11.87c0-.63,.05-1.27,.23-1.72,.51-1.27,1.67-2.59,3.63-2.59,2.56,0,3.58,1.95,3.58,4.81v11.38h7.07v-12.19c0-6.53-3.49-9.57-8.14-9.57-3.81,0-5.49,2.13-6.42,3.58h.05v-3.08h-7.07c.09,2,0,21.27,0,21.27h0Z"/></g></svg>